<?xml version="1.0" encoding="utf-8"?>
<!-- Generator: Adobe Illustrator 23.0.0, SVG Export Plug-In . SVG Version: 6.00 Build 0)  -->
<svg version="1.1" id="Layer_1" xmlns="http://www.w3.org/2000/svg" xmlns:xlink="http://www.w3.org/1999/xlink" width="251px" height="71px"
	 viewBox="0 0 250 66.63" style="enable-background:new 0 0 250 66.63;" xml:space="preserve">
<style type="text/css">
	.st0{fill:#AD8858;}
	.st1{fillRule:evenodd;clip-rule:evenodd;fill:#FFFFFF;}
	.st2{fillRule:evenodd;clip-rule:evenodd;fill:#AD8858;}
	.st3{fill:#222222;}
	.st4{fill:#666666;}
</style>
<path class="st0" d="M47.14,66.33c1.15-0.19,2.32-0.47,3.46-0.86c0.16-0.05,0.32-0.11,0.48-0.17c0.05-0.02,0.11-0.04,0.16-0.06
	c0.52-0.19,1.04-0.41,1.57-0.65c2.98-1.37,5.74-3.45,7.86-6.27c5.58-7.39,5.54-17.75,4.01-26.51c-1.27-7.26-3.36-14.33-7-20.2
	C50.23-0.4,38.55-3.69,25.88,4.56C20.22,8.25,11.53,14.6,5.77,22.01C0.98,28.16-1.89,35.6,1.43,42.55
	c4.49,9.39,15.21,16.08,24.91,20.04c2.81,1.05,5.56,2.06,8.31,2.82C38.69,66.47,42.88,67.01,47.14,66.33z"/>
<path class="st0" d="M52.81,64.6c-0.53,0.24-1.05,0.45-1.57,0.65C51.77,65.05,52.29,64.84,52.81,64.6z"/>
<path class="st0" d="M51.08,65.3c-0.16,0.06-0.32,0.11-0.48,0.17C50.76,65.42,50.92,65.36,51.08,65.3z"/>
<path class="st0" d="M34.66,65.41c-2.75-0.76-5.5-1.77-8.31-2.82c2.16,0.88,4.26,1.62,6.24,2.23
	C33.27,65.03,33.96,65.23,34.66,65.41z"/>
<path class="st1" d="M26.31,47.5c1.83-3.7,4.68-8.2,10.87-13.63c-4.28,3.16-14.7,9.22-16.12,22.14c-0.13-8.02,3.3-13.45,9.35-18.22
	c2.67-2.09,5.08-3.56,8.55-6.41c5.57-4.59,4.1-8.86,9.31-9.4c0.62,4.1-0.27,5.43-1.47,8.37l1.38,0.53l-1.56,0.18
	c-0.18,0.98-0.13,1.91,0.27,3.34c0.13,0.4,0.22,0.8,0.36,1.2c0.22,0.71,0.22,1.34-0.58,1.6c-0.85,0.27-2.23,0.04-1.96,1.78
	c0.09,0.71,0.13,0.94-0.49,1.07c-0.53,0.09-0.67,0.27-0.58,0.71c0.18,0.89-0.45,0.76-1.07,1.03c-0.93,0.4-0.76,0.89-0.89,1.74
	c-0.53,3.03-4.54-0.53-5.75-1.38c-1.29-0.85-2.45-0.44-3.52,1.83c-2,4.5-1.51,6.32,0,8.02c2.81,3.03,6.95,4.68,10.29,7.35
	c2.92,2.39,3.65,4.66,4.74,6.96c0.51-0.1,1.01-0.21,1.52-0.34c-0.69-2.5-0.38-4.42,1.48-8.26c4.68-9.67,9.71-20.58,1.74-32.16
	c6.77,5.75,9.35,19.95-2.14,36.08C66,41.66,61.72,25.72,49.79,18.68c-9.13-11.76-20.18-10.2-29.08-2.4
	c-8.6,7.53-15.14,24.36-9.4,36.39c1.34-12.6,6.5-18.17,11.89-21.78c6.77-4.54,11.27-4.9,15.99-12.96
	c-2.85,8.1-9.09,9.53-15.01,13.85c-3.38,2.54-7.75,6.01-10.69,17.41c5.17-11.18,15.99-13.05,23.65-20.62
	c-6.09,9.06-24.89,13.33-22.63,27.88c2.59,1.73,6.43,4.01,10.94,5.8C22.62,57.9,23.47,53.25,26.31,47.5z M50.41,42.37
	c0.85-2.94,1.38-6.32,1.47-10.33c0.8,3.56,0.49,7.31-0.4,10.73c-1.56,5.92-4.1,7.93-5.3,15.14C46.54,50.3,48.85,47.81,50.41,42.37z
	 M11.04,42.87c0.18-11.89,6.15-24.23,17.1-29.35C17.01,21.26,13.31,31.24,11.04,42.87z"/>
<path class="st2" d="M51.48,42.78c0.89-3.43,1.2-7.17,0.4-10.73c-0.09,4.01-0.62,7.39-1.47,10.33c-1.56,5.43-3.88,7.93-4.23,15.55
	C47.38,50.7,49.92,48.7,51.48,42.78z"/>
<path class="st3" d="M80.73,12.89h4.61v22.42h-4.61V12.89z M84.79,22.15h17.78v3.85H84.79V22.15z M101.8,12.89h4.61v22.42h-4.61
	V12.89z"/>
<path class="st3" d="M118.16,35.7c-1.71,0-3.26-0.38-4.66-1.13c-1.4-0.75-2.51-1.8-3.33-3.15c-0.82-1.35-1.23-2.92-1.23-4.7
	c0-1.82,0.42-3.41,1.25-4.75c0.83-1.34,1.96-2.39,3.38-3.14c1.42-0.75,3.03-1.13,4.83-1.13c1.99,0,3.59,0.4,4.8,1.2
	c1.21,0.8,2.1,1.88,2.65,3.24c0.55,1.36,0.83,2.89,0.83,4.57c0,1.02-0.16,2.05-0.49,3.1c-0.32,1.05-0.82,2.02-1.49,2.91
	c-0.67,0.89-1.55,1.61-2.63,2.15C120.99,35.43,119.69,35.7,118.16,35.7z M119.62,32.23c1.36,0,2.54-0.23,3.54-0.69
	c0.99-0.46,1.76-1.11,2.29-1.94c0.53-0.83,0.8-1.79,0.8-2.88c0-1.18-0.27-2.18-0.81-3c-0.54-0.82-1.31-1.44-2.29-1.87
	c-0.98-0.43-2.15-0.64-3.52-0.64c-1.92,0-3.41,0.5-4.47,1.51c-1.06,1.01-1.59,2.34-1.59,4c0,1.11,0.25,2.07,0.76,2.89
	c0.51,0.82,1.22,1.46,2.13,1.92C117.36,32,118.42,32.23,119.62,32.23z M126.24,18.09h4.51v17.23h-4.19c-0.12-0.9-0.2-1.7-0.24-2.39
	c-0.05-0.69-0.07-1.37-0.07-2.04V18.09z"/>
<path class="st3" d="M141.83,35.7c-1.71,0-3.26-0.38-4.66-1.13c-1.4-0.75-2.51-1.8-3.33-3.15c-0.82-1.35-1.23-2.92-1.23-4.7
	c0-1.82,0.42-3.41,1.25-4.75c0.83-1.34,1.96-2.39,3.38-3.14c1.42-0.75,3.03-1.13,4.83-1.13c1.99,0,3.59,0.4,4.8,1.2
	c1.21,0.8,2.1,1.88,2.65,3.24c0.55,1.36,0.83,2.89,0.83,4.57c0,1.02-0.16,2.05-0.49,3.1c-0.32,1.05-0.82,2.02-1.49,2.91
	c-0.67,0.89-1.55,1.61-2.63,2.15C144.66,35.43,143.36,35.7,141.83,35.7z M143.29,32.23c1.36,0,2.54-0.23,3.54-0.69
	c0.99-0.46,1.76-1.11,2.29-1.94c0.53-0.83,0.8-1.79,0.8-2.88c0-1.18-0.27-2.18-0.81-3c-0.54-0.82-1.31-1.44-2.29-1.87
	c-0.98-0.43-2.15-0.64-3.52-0.64c-1.92,0-3.41,0.5-4.47,1.51c-1.06,1.01-1.59,2.34-1.59,4c0,1.11,0.25,2.07,0.76,2.89
	c0.51,0.82,1.22,1.46,2.13,1.92C141.03,32,142.09,32.23,143.29,32.23z M149.91,18.09h4.51v17.23h-4.19c-0.12-0.9-0.2-1.7-0.24-2.39
	c-0.05-0.69-0.07-1.37-0.07-2.04V18.09z"/>
<path class="st3" d="M157.12,18.09h4.51v17.23h-4.51V18.09z M168.24,21.8c-1.29,0-2.41,0.25-3.36,0.75c-0.95,0.5-1.71,1.1-2.29,1.82
	c-0.58,0.72-0.98,1.41-1.21,2.08l-0.03-1.91c0.02-0.28,0.12-0.69,0.28-1.23c0.16-0.54,0.4-1.13,0.73-1.77
	c0.32-0.64,0.75-1.25,1.28-1.84c0.53-0.59,1.18-1.07,1.94-1.44c0.76-0.37,1.65-0.55,2.67-0.55V21.8z"/>
<path class="st3" d="M187.65,33.03h-2.18l12.89-20.14h4.61v22.42h-4.61V19.03l1.11,0.31l-10.29,15.98h-5.16l-10.29-15.91l1.11-0.31
	v16.22h-4.61V12.89h4.61L187.65,33.03z"/>
<path class="st3" d="M214.72,35.7c-1.71,0-3.26-0.38-4.66-1.13c-1.4-0.75-2.51-1.8-3.33-3.15c-0.82-1.35-1.23-2.92-1.23-4.7
	c0-1.82,0.42-3.41,1.25-4.75c0.83-1.34,1.96-2.39,3.38-3.14c1.42-0.75,3.03-1.13,4.83-1.13c1.99,0,3.59,0.4,4.8,1.2
	s2.1,1.88,2.65,3.24c0.55,1.36,0.83,2.89,0.83,4.57c0,1.02-0.16,2.05-0.49,3.1c-0.32,1.05-0.82,2.02-1.49,2.91
	c-0.67,0.89-1.55,1.61-2.63,2.15C217.55,35.43,216.24,35.7,214.72,35.7z M216.17,32.23c1.36,0,2.54-0.23,3.54-0.69
	c0.99-0.46,1.76-1.11,2.29-1.94c0.53-0.83,0.8-1.79,0.8-2.88c0-1.18-0.27-2.18-0.81-3c-0.54-0.82-1.31-1.44-2.29-1.87
	c-0.98-0.43-2.15-0.64-3.52-0.64c-1.92,0-3.41,0.5-4.47,1.51c-1.06,1.01-1.59,2.34-1.59,4c0,1.11,0.25,2.07,0.76,2.89
	c0.51,0.82,1.22,1.46,2.13,1.92C213.92,32,214.97,32.23,216.17,32.23z M222.79,18.09h4.51v17.23h-4.19c-0.12-0.9-0.2-1.7-0.24-2.39
	c-0.05-0.69-0.07-1.37-0.07-2.04V18.09z"/>
<path class="st3" d="M228.62,18.09h5.51l6.52,7.07L250,35.32h-5.51l-6.69-7.52L228.62,18.09z M249.51,18.09l-8.94,9.6l-6.45,7.62
	h-5.51l9.32-10.09l6.1-7.14H249.51z"/>
<g>
	<path class="st4" d="M80.67,43.92h1.46v9.66h-1.46V43.92z M81.97,48.1h6.62v1.29h-6.62V48.1z M88.45,43.92h1.44v9.66h-1.44V43.92z"
		/>
	<path class="st4" d="M95.09,53.72c-0.64,0-1.22-0.16-1.74-0.49c-0.53-0.33-0.94-0.78-1.26-1.36s-0.47-1.25-0.47-2
		c0-0.75,0.16-1.42,0.48-2c0.32-0.58,0.75-1.04,1.29-1.37c0.54-0.33,1.15-0.5,1.84-0.5c0.74,0,1.32,0.17,1.74,0.52
		c0.42,0.35,0.71,0.81,0.88,1.4c0.17,0.59,0.25,1.24,0.25,1.95c0,0.4-0.05,0.82-0.15,1.27c-0.1,0.45-0.26,0.87-0.48,1.27
		s-0.53,0.72-0.92,0.96C96.16,53.6,95.67,53.72,95.09,53.72z M95.49,52.47c0.54,0,0.98-0.11,1.35-0.34
		c0.36-0.23,0.63-0.54,0.82-0.94c0.18-0.4,0.28-0.84,0.28-1.32c0-0.53-0.09-0.98-0.28-1.38c-0.19-0.39-0.46-0.7-0.83-0.92
		c-0.36-0.22-0.81-0.33-1.33-0.33c-0.76,0-1.36,0.25-1.79,0.74c-0.43,0.49-0.64,1.12-0.64,1.88c0,0.52,0.1,0.97,0.31,1.36
		c0.21,0.39,0.5,0.7,0.86,0.92C94.61,52.36,95.02,52.47,95.49,52.47z M97.93,46.15h1.44v7.43h-1.32c-0.04-0.37-0.07-0.68-0.09-0.94
		c-0.02-0.26-0.03-0.49-0.03-0.68V46.15z"/>
	<path class="st4" d="M102.96,43.08v1.53h-1.79v-1.53H102.96z M101.35,46.15h1.43v7.43h-1.43V46.15z"/>
	<path class="st4" d="M104.79,46.15h1.44v7.43h-1.44V46.15z M108.76,47.43c-0.52,0-0.96,0.12-1.32,0.36
		c-0.37,0.24-0.65,0.53-0.86,0.87c-0.21,0.34-0.35,0.68-0.43,1l-0.01-0.85c0.01-0.1,0.04-0.26,0.09-0.48
		c0.05-0.22,0.13-0.46,0.25-0.73c0.12-0.27,0.28-0.52,0.48-0.77c0.2-0.24,0.45-0.44,0.74-0.6c0.3-0.16,0.65-0.24,1.07-0.24V47.43z"
		/>
	<path class="st4" d="M112.92,50.41h1.38c0.04,0.39,0.18,0.73,0.41,1.04c0.23,0.31,0.55,0.55,0.96,0.73
		c0.41,0.18,0.87,0.27,1.4,0.27c0.47,0,0.86-0.06,1.17-0.19c0.31-0.12,0.55-0.3,0.7-0.53c0.15-0.23,0.23-0.49,0.23-0.79
		c0-0.31-0.09-0.55-0.26-0.74c-0.17-0.18-0.43-0.34-0.77-0.46c-0.34-0.12-0.76-0.25-1.27-0.36c-0.44-0.1-0.87-0.23-1.29-0.38
		c-0.43-0.15-0.82-0.34-1.17-0.57c-0.35-0.23-0.64-0.51-0.85-0.83c-0.21-0.33-0.32-0.72-0.32-1.18c0-0.49,0.14-0.93,0.41-1.33
		c0.27-0.4,0.67-0.72,1.2-0.97c0.53-0.24,1.16-0.36,1.91-0.36c1.16,0,2.04,0.29,2.63,0.86c0.6,0.58,0.88,1.34,0.86,2.31h-1.37
		c-0.02-0.66-0.23-1.14-0.63-1.44c-0.4-0.29-0.92-0.44-1.56-0.44c-0.55,0-1.01,0.11-1.41,0.33c-0.39,0.22-0.59,0.57-0.59,1.06
		c0,0.21,0.04,0.39,0.13,0.54c0.09,0.15,0.24,0.29,0.45,0.42c0.21,0.12,0.49,0.25,0.85,0.36c0.36,0.12,0.8,0.25,1.32,0.39
		c0.41,0.09,0.8,0.2,1.17,0.34c0.37,0.14,0.71,0.31,1.01,0.52c0.3,0.21,0.54,0.47,0.71,0.8c0.17,0.32,0.26,0.73,0.26,1.21
		c0,0.51-0.12,0.97-0.37,1.38c-0.25,0.41-0.64,0.74-1.16,0.98c-0.53,0.24-1.21,0.36-2.04,0.36c-0.65,0-1.23-0.08-1.71-0.25
		c-0.49-0.16-0.89-0.38-1.21-0.65c-0.32-0.27-0.58-0.56-0.76-0.86c-0.18-0.3-0.31-0.6-0.38-0.88
		C112.91,50.81,112.89,50.58,112.92,50.41z"/>
	<path class="st4" d="M125.22,53.72c-0.64,0-1.22-0.16-1.74-0.49c-0.53-0.33-0.94-0.78-1.26-1.36s-0.47-1.25-0.47-2
		c0-0.75,0.16-1.42,0.48-2c0.32-0.58,0.75-1.04,1.29-1.37c0.54-0.33,1.15-0.5,1.84-0.5c0.74,0,1.32,0.17,1.74,0.52
		c0.42,0.35,0.71,0.81,0.88,1.4c0.17,0.59,0.25,1.24,0.25,1.95c0,0.4-0.05,0.82-0.15,1.27c-0.1,0.45-0.26,0.87-0.48,1.27
		s-0.53,0.72-0.92,0.96C126.29,53.6,125.81,53.72,125.22,53.72z M125.63,52.47c0.54,0,0.98-0.11,1.35-0.34
		c0.36-0.23,0.63-0.54,0.82-0.94c0.18-0.4,0.28-0.84,0.28-1.32c0-0.53-0.09-0.98-0.28-1.38c-0.19-0.39-0.46-0.7-0.83-0.92
		c-0.36-0.22-0.81-0.33-1.33-0.33c-0.76,0-1.36,0.25-1.79,0.74c-0.43,0.49-0.64,1.12-0.64,1.88c0,0.52,0.1,0.97,0.31,1.36
		c0.21,0.39,0.5,0.7,0.86,0.92C124.74,52.36,125.16,52.47,125.63,52.47z M128.07,46.15h1.44v7.43h-1.32
		c-0.04-0.37-0.07-0.68-0.09-0.94c-0.02-0.26-0.03-0.49-0.03-0.68V46.15z"/>
	<path class="st4" d="M131.52,43.17h1.44v10.4h-1.44V43.17z"/>
	<path class="st4" d="M138.62,53.74c-0.73,0-1.41-0.15-2.02-0.46c-0.61-0.31-1.09-0.75-1.45-1.32c-0.36-0.58-0.54-1.27-0.54-2.07
		c0-0.81,0.18-1.51,0.54-2.09c0.36-0.58,0.84-1.02,1.45-1.33c0.61-0.31,1.28-0.46,2.02-0.46c0.73,0,1.4,0.15,2,0.46
		c0.6,0.31,1.08,0.75,1.44,1.33c0.36,0.58,0.54,1.28,0.54,2.09c0,0.8-0.18,1.49-0.54,2.07c-0.36,0.58-0.84,1.02-1.44,1.32
		C140.02,53.59,139.35,53.74,138.62,53.74z M138.62,52.49c0.45,0,0.86-0.1,1.24-0.3c0.38-0.2,0.69-0.49,0.92-0.89
		c0.23-0.39,0.35-0.87,0.35-1.42c0-0.57-0.12-1.04-0.35-1.44c-0.23-0.39-0.54-0.69-0.92-0.9c-0.38-0.21-0.8-0.31-1.24-0.31
		c-0.46,0-0.88,0.1-1.27,0.31c-0.39,0.2-0.7,0.5-0.94,0.89c-0.24,0.39-0.36,0.88-0.36,1.45c0,0.56,0.12,1.03,0.35,1.42
		c0.23,0.39,0.55,0.69,0.94,0.89C137.74,52.39,138.16,52.49,138.62,52.49z"/>
	<path class="st4" d="M144.06,46.15h1.44v7.43h-1.44V46.15z M148.37,46c0.42,0,0.79,0.06,1.13,0.18c0.34,0.12,0.63,0.3,0.87,0.53
		c0.24,0.23,0.43,0.52,0.57,0.86c0.13,0.34,0.2,0.74,0.2,1.18v4.82h-1.44v-4.51c0-0.6-0.14-1.04-0.42-1.32
		c-0.28-0.29-0.71-0.43-1.29-0.43c-0.45,0-0.86,0.1-1.23,0.31c-0.37,0.2-0.67,0.48-0.91,0.82c-0.23,0.34-0.37,0.73-0.42,1.15
		l-0.01-0.82c0.05-0.4,0.16-0.76,0.32-1.09c0.16-0.33,0.37-0.63,0.63-0.88c0.26-0.25,0.56-0.45,0.89-0.59
		C147.59,46.07,147.96,46,148.37,46z"/>
	<path class="st4" d="M158.69,53.72c-0.39,0-0.75-0.06-1.09-0.18c-0.34-0.12-0.64-0.29-0.9-0.51c-0.26-0.22-0.46-0.48-0.6-0.79
		c-0.14-0.31-0.22-0.64-0.22-1.01c0-0.45,0.09-0.84,0.28-1.18c0.19-0.34,0.45-0.62,0.77-0.84c0.33-0.22,0.7-0.4,1.12-0.52
		c0.42-0.12,0.87-0.2,1.33-0.23l0.04,0.07c-0.44-0.02-0.85-0.07-1.23-0.15c-0.38-0.08-0.72-0.2-1-0.37
		c-0.29-0.17-0.51-0.39-0.67-0.66c-0.16-0.27-0.24-0.6-0.24-0.98c0-0.51,0.14-0.96,0.41-1.35c0.27-0.4,0.67-0.71,1.18-0.94
		c0.52-0.23,1.13-0.34,1.83-0.34c0.48,0,0.91,0.06,1.29,0.17c0.38,0.11,0.71,0.28,0.98,0.5c0.27,0.22,0.48,0.49,0.63,0.82
		c0.15,0.33,0.22,0.7,0.22,1.13h-1.29c0-0.44-0.16-0.77-0.49-0.99c-0.33-0.22-0.78-0.33-1.35-0.33c-0.62,0-1.1,0.13-1.44,0.39
		c-0.33,0.26-0.5,0.61-0.5,1.05c0,0.31,0.08,0.58,0.24,0.81c0.16,0.23,0.39,0.41,0.71,0.54c0.31,0.12,0.69,0.19,1.14,0.19h4.73v1.12
		h-1.59v4.44h-1.32c-0.04-0.32-0.07-0.61-0.08-0.88c-0.01-0.27-0.02-0.56-0.03-0.86c-0.01-0.31-0.01-0.68-0.01-1.12l0.09,0.25
		c-0.06,0.36-0.16,0.7-0.31,1.03c-0.14,0.33-0.33,0.62-0.57,0.89c-0.24,0.26-0.53,0.47-0.87,0.62
		C159.55,53.65,159.15,53.72,158.69,53.72z M159.21,52.47c0.51,0,0.93-0.12,1.27-0.36c0.34-0.24,0.61-0.55,0.79-0.92
		s0.28-0.76,0.28-1.16v-0.89h-1.7c-0.76,0-1.37,0.15-1.82,0.46c-0.45,0.31-0.68,0.74-0.68,1.29c0,0.49,0.16,0.87,0.48,1.15
		C158.16,52.33,158.62,52.47,159.21,52.47z"/>
	<path class="st4" d="M167.94,43.92h8.54v1.29h-8.54V43.92z M171.48,45.06h1.46v8.51h-1.46V45.06z"/>
	<path class="st4" d="M176.66,46.15h1.44v7.43h-1.44V46.15z M180.63,47.43c-0.52,0-0.96,0.12-1.32,0.36
		c-0.37,0.24-0.65,0.53-0.86,0.87c-0.21,0.34-0.35,0.68-0.43,1L178,48.81c0.01-0.1,0.04-0.26,0.09-0.48
		c0.05-0.22,0.13-0.46,0.25-0.73c0.12-0.27,0.28-0.52,0.48-0.77c0.2-0.24,0.45-0.44,0.74-0.6c0.3-0.16,0.65-0.24,1.07-0.24V47.43z"
		/>
	<path class="st4" d="M187.68,51.16h1.37c-0.08,0.49-0.27,0.92-0.56,1.31c-0.29,0.39-0.68,0.69-1.18,0.92
		c-0.49,0.23-1.07,0.34-1.73,0.34c-0.77,0-1.47-0.16-2.08-0.48c-0.62-0.32-1.1-0.77-1.44-1.35c-0.35-0.58-0.52-1.25-0.52-2.02
		c0-0.77,0.17-1.45,0.51-2.03c0.34-0.58,0.81-1.03,1.41-1.36c0.6-0.33,1.29-0.49,2.06-0.49c0.81,0,1.49,0.16,2.04,0.48
		c0.55,0.32,0.95,0.79,1.22,1.41c0.27,0.62,0.38,1.39,0.33,2.31h-6.12c0.05,0.45,0.19,0.84,0.41,1.19c0.22,0.35,0.52,0.62,0.89,0.81
		c0.37,0.19,0.8,0.29,1.29,0.29c0.55,0,1-0.12,1.38-0.36C187.32,51.88,187.57,51.56,187.68,51.16z M185.51,47.24
		c-0.65,0-1.18,0.17-1.61,0.51c-0.43,0.34-0.71,0.79-0.85,1.35h4.58c-0.04-0.6-0.26-1.05-0.65-1.38
		C186.59,47.4,186.1,47.24,185.51,47.24z"/>
	<path class="st4" d="M193.68,53.72c-0.64,0-1.22-0.16-1.74-0.49c-0.53-0.33-0.95-0.78-1.26-1.36c-0.31-0.58-0.47-1.25-0.47-2
		c0-0.75,0.16-1.42,0.48-2c0.32-0.58,0.75-1.04,1.29-1.37c0.54-0.33,1.15-0.5,1.84-0.5c0.74,0,1.32,0.17,1.74,0.52
		c0.42,0.35,0.71,0.81,0.88,1.4c0.17,0.59,0.25,1.24,0.25,1.95c0,0.4-0.05,0.82-0.15,1.27c-0.1,0.45-0.26,0.87-0.48,1.27
		c-0.22,0.4-0.53,0.72-0.92,0.96C194.75,53.6,194.27,53.72,193.68,53.72z M194.08,52.47c0.54,0,0.98-0.11,1.35-0.34
		c0.36-0.23,0.63-0.54,0.82-0.94c0.18-0.4,0.28-0.84,0.28-1.32c0-0.53-0.09-0.98-0.28-1.38c-0.19-0.39-0.46-0.7-0.83-0.92
		c-0.36-0.22-0.81-0.33-1.33-0.33c-0.76,0-1.36,0.25-1.79,0.74c-0.43,0.49-0.64,1.12-0.64,1.88c0,0.52,0.1,0.97,0.31,1.36
		c0.21,0.39,0.5,0.7,0.86,0.92C193.2,52.36,193.62,52.47,194.08,52.47z M196.53,46.15h1.44v7.43h-1.32
		c-0.04-0.37-0.07-0.68-0.09-0.94c-0.02-0.26-0.03-0.49-0.03-0.68V46.15z"/>
	<path class="st4" d="M199.31,46.15h4.84v1.25h-4.84V46.15z M201,44.18h1.44v9.39H201V44.18z"/>
	<path class="st4" d="M205.5,46.15h1.44v7.43h-1.44V46.15z M209.8,46c0.42,0,0.79,0.06,1.13,0.18c0.34,0.12,0.63,0.3,0.87,0.53
		c0.24,0.23,0.43,0.52,0.57,0.86c0.13,0.34,0.2,0.74,0.2,1.18v4.82h-1.44v-4.51c0-0.6-0.14-1.04-0.42-1.32
		c-0.28-0.29-0.71-0.43-1.29-0.43c-0.45,0-0.86,0.1-1.23,0.31c-0.37,0.2-0.67,0.48-0.91,0.82c-0.23,0.34-0.37,0.73-0.42,1.15
		l-0.01-0.82c0.05-0.4,0.16-0.76,0.32-1.09c0.16-0.33,0.37-0.63,0.63-0.88c0.26-0.25,0.56-0.45,0.89-0.59
		C209.02,46.07,209.39,46,209.8,46z M215.28,46c0.42,0,0.8,0.06,1.14,0.18c0.34,0.12,0.63,0.3,0.87,0.53
		c0.24,0.23,0.42,0.52,0.56,0.86c0.13,0.34,0.2,0.74,0.2,1.18v4.82h-1.43v-4.51c0-0.6-0.14-1.04-0.42-1.32
		c-0.28-0.29-0.72-0.43-1.3-0.43c-0.45,0-0.85,0.1-1.22,0.31c-0.37,0.2-0.67,0.48-0.91,0.82c-0.24,0.34-0.38,0.73-0.42,1.15
		l-0.01-0.83c0.05-0.39,0.16-0.75,0.32-1.09c0.16-0.34,0.37-0.63,0.63-0.88c0.26-0.25,0.56-0.44,0.89-0.58
		C214.51,46.07,214.88,46,215.28,46z"/>
	<path class="st4" d="M225.68,51.16h1.37c-0.08,0.49-0.27,0.92-0.56,1.31c-0.29,0.39-0.68,0.69-1.18,0.92
		c-0.49,0.23-1.07,0.34-1.73,0.34c-0.77,0-1.47-0.16-2.08-0.48c-0.62-0.32-1.1-0.77-1.44-1.35c-0.35-0.58-0.52-1.25-0.52-2.02
		c0-0.77,0.17-1.45,0.51-2.03c0.34-0.58,0.81-1.03,1.41-1.36c0.6-0.33,1.29-0.49,2.06-0.49c0.81,0,1.49,0.16,2.04,0.48
		c0.55,0.32,0.95,0.79,1.22,1.41c0.27,0.62,0.38,1.39,0.33,2.31h-6.12c0.05,0.45,0.19,0.84,0.41,1.19c0.22,0.35,0.52,0.62,0.89,0.81
		c0.37,0.19,0.8,0.29,1.29,0.29c0.55,0,1-0.12,1.38-0.36C225.32,51.88,225.56,51.56,225.68,51.16z M223.51,47.24
		c-0.65,0-1.18,0.17-1.61,0.51c-0.43,0.34-0.71,0.79-0.85,1.35h4.58c-0.04-0.6-0.26-1.05-0.65-1.38
		C224.58,47.4,224.09,47.24,223.51,47.24z"/>
	<path class="st4" d="M228.6,46.15h1.44v7.43h-1.44V46.15z M232.9,46c0.42,0,0.79,0.06,1.13,0.18c0.34,0.12,0.63,0.3,0.87,0.53
		c0.24,0.23,0.43,0.52,0.57,0.86c0.13,0.34,0.2,0.74,0.2,1.18v4.82h-1.44v-4.51c0-0.6-0.14-1.04-0.42-1.32
		c-0.28-0.29-0.71-0.43-1.29-0.43c-0.45,0-0.86,0.1-1.23,0.31c-0.37,0.2-0.67,0.48-0.91,0.82c-0.23,0.34-0.37,0.73-0.42,1.15
		l-0.01-0.82c0.05-0.4,0.16-0.76,0.32-1.09c0.16-0.33,0.37-0.63,0.63-0.88c0.26-0.25,0.56-0.45,0.89-0.59
		C232.12,46.07,232.49,46,232.9,46z"/>
	<path class="st4" d="M237.01,46.15h4.84v1.25h-4.84V46.15z M238.7,44.18h1.44v9.39h-1.44V44.18z"/>
	<path class="st4" d="M242.87,51.16h1.32c0.06,0.4,0.24,0.72,0.55,0.97c0.31,0.25,0.74,0.37,1.29,0.37c0.35,0,0.62-0.04,0.82-0.13
		c0.2-0.08,0.34-0.2,0.43-0.34c0.09-0.14,0.13-0.31,0.13-0.5c0-0.22-0.06-0.39-0.18-0.52c-0.12-0.13-0.29-0.23-0.51-0.31
		c-0.22-0.08-0.48-0.16-0.79-0.24c-0.33-0.09-0.66-0.19-0.99-0.31c-0.33-0.12-0.63-0.26-0.91-0.43c-0.27-0.17-0.49-0.38-0.65-0.63
		c-0.16-0.25-0.25-0.56-0.25-0.92c0-0.32,0.07-0.61,0.2-0.88c0.13-0.27,0.33-0.5,0.58-0.69c0.25-0.19,0.55-0.34,0.89-0.45
		c0.34-0.1,0.72-0.16,1.12-0.16c0.58,0,1.06,0.1,1.45,0.31c0.39,0.2,0.69,0.49,0.89,0.86c0.2,0.37,0.31,0.79,0.32,1.28h-1.27
		c-0.07-0.43-0.22-0.73-0.44-0.92c-0.22-0.19-0.55-0.28-0.97-0.28c-0.44,0-0.77,0.08-1,0.25c-0.23,0.17-0.34,0.4-0.34,0.68
		c0,0.21,0.08,0.38,0.24,0.51c0.16,0.13,0.37,0.25,0.64,0.35c0.27,0.1,0.58,0.2,0.92,0.31c0.32,0.11,0.63,0.22,0.92,0.33
		c0.3,0.11,0.56,0.24,0.8,0.4c0.23,0.16,0.42,0.36,0.55,0.6c0.13,0.24,0.2,0.54,0.2,0.91c0,0.44-0.11,0.82-0.33,1.14
		c-0.22,0.32-0.54,0.57-0.95,0.75c-0.42,0.18-0.92,0.27-1.52,0.27c-0.53,0-0.98-0.06-1.36-0.19c-0.38-0.13-0.7-0.3-0.95-0.51
		c-0.25-0.21-0.44-0.43-0.58-0.66c-0.14-0.23-0.23-0.46-0.28-0.68C242.86,51.48,242.85,51.3,242.87,51.16z"/>
</g>
</svg>
